<?xml version="1.0" encoding="iso-8859-1"?>
<!-- Generator: Adobe Illustrator 19.0.0, SVG Export Plug-In . SVG Version: 6.00 Build 0)  -->
<svg version="1.1" id="Layer_1" xmlns="http://www.w3.org/2000/svg" xmlns:xlink="http://www.w3.org/1999/xlink" x="0px" y="0px"
	 viewBox="0 0 512 512" style="enable-background:new 0 0 512 512;" xml:space="preserve">
<g>
	<g>
		<path d="M232.727,238.545v186.182H281.6l-13.964,69.818l97.745-69.818H512V238.545H232.727z M477.091,389.818H365.382h-11.187
			l-9.103,6.502l-25.912,18.508l5.003-25.01H281.6h-13.964V273.455h209.455V389.818z"/>
	</g>
</g>
<g>
	<g>
		<path d="M279.273,17.455H0v186.182h65.164l97.745,69.818l-13.964-69.818h130.327V17.455z M244.364,168.727h-95.418h-42.582
			l5.003,25.01L85.455,175.23l-9.104-6.502H65.164H34.909V52.364h209.455V168.727z"/>
	</g>
</g>
<g>
	<g>
		<rect x="180.364" y="93.091" width="34.909" height="34.909"/>
	</g>
</g>
<g>
	<g>
		<rect x="122.182" y="93.091" width="34.909" height="34.909"/>
	</g>
</g>
<g>
	<g>
		<rect x="64" y="93.091" width="34.909" height="34.909"/>
	</g>
</g>
<g>
	<g>
		<rect x="413.091" y="314.182" width="34.909" height="34.909"/>
	</g>
</g>
<g>
	<g>
		<rect x="354.909" y="314.182" width="34.909" height="34.909"/>
	</g>
</g>
<g>
	<g>
		<rect x="296.727" y="314.182" width="34.909" height="34.909"/>
	</g>
</g>
<g>
</g>
<g>
</g>
<g>
</g>
<g>
</g>
<g>
</g>
<g>
</g>
<g>
</g>
<g>
</g>
<g>
</g>
<g>
</g>
<g>
</g>
<g>
</g>
<g>
</g>
<g>
</g>
<g>
</g>
</svg>
